<?xml version="1.0" standalone="no"?>
<!DOCTYPE svg PUBLIC "-//W3C//DTD SVG 20010904//EN"
 "http://www.w3.org/TR/2001/REC-SVG-20010904/DTD/svg10.dtd">
<svg version="1.0" xmlns="http://www.w3.org/2000/svg"
 width="139.000000pt" height="162.000000pt" viewBox="0 0 139.000000 162.000000"
 preserveAspectRatio="xMidYMid meet">
<metadata>
Created by potrace 1.10, written by Peter Selinger 2001-2011
</metadata>
<g transform="translate(0.000000,162.000000) scale(0.100000,-0.100000)"
fill="#000000" stroke="none">
<path d="M610 1576 c-3 -2 -23 -7 -45 -10 -22 -2 -52 -9 -65 -14 -33 -14 -59
-22 -66 -21 -4 0 -10 -3 -13 -8 -3 -4 -23 -16 -43 -25 -36 -17 -63 -36 -100
-70 -10 -10 -18 -15 -18 -12 0 4 -12 -9 -27 -28 -16 -18 -34 -40 -41 -48 -30
-36 -61 -92 -80 -146 -24 -70 -44 -190 -37 -225 3 -13 7 -44 10 -69 7 -60 26
-120 37 -120 5 0 7 -4 4 -9 -3 -5 5 -25 19 -45 14 -20 25 -41 25 -46 0 -6 5
-10 10 -10 6 0 10 -6 10 -13 0 -15 104 -117 120 -117 5 0 10 -4 10 -10 0 -5 6
-10 14 -10 7 0 19 -7 26 -14 6 -8 28 -20 48 -27 20 -7 39 -15 42 -18 9 -11 60
-31 80 -31 11 0 20 -5 20 -11 0 -5 5 -7 10 -4 5 3 10 1 10 -5 0 -6 -8 -9 -18
-6 -12 4 -28 -2 -44 -17 -23 -21 -25 -30 -22 -82 l3 -57 -24 26 c-28 30 -60
33 -95 9 -17 -12 -25 -13 -28 -5 -2 7 -8 10 -13 6 -5 -3 -9 0 -9 6 0 6 -5 8
-12 4 -6 -4 -8 -3 -4 4 3 6 2 13 -4 17 -6 4 -8 11 -4 16 9 15 -19 69 -41 76
-34 11 -65 12 -71 2 -3 -5 -13 -5 -25 1 -13 8 -25 7 -39 0 -11 -6 -20 -8 -20
-4 0 4 -9 -5 -21 -19 -11 -15 -19 -32 -18 -39 2 -7 -1 -35 -5 -63 -4 -27 -8
-52 -8 -55 0 -3 -4 -11 -10 -17 -6 -7 -7 -13 -3 -13 4 0 2 -6 -4 -14 -14 -17
1 -56 28 -73 10 -6 67 -14 127 -18 128 -7 152 3 163 71 6 32 11 38 26 36 45
-8 81 -2 96 17 16 20 17 20 22 -12 2 -17 0 -40 -5 -50 -6 -13 -5 -19 7 -23 9
-4 14 -12 12 -18 -3 -7 3 -12 12 -13 9 -1 38 -7 64 -14 39 -10 53 -10 69 0 11
7 54 13 99 13 43 0 79 5 79 10 0 9 72 -40 78 -54 5 -10 51 1 78 19 30 19 242
28 290 11 40 -14 87 12 76 42 -4 11 -5 50 -2 87 7 95 2 165 -12 157 -7 -5 -9
-2 -5 9 4 11 2 14 -9 10 -7 -3 -14 0 -14 6 0 13 -169 12 -187 -1 -7 -6 -19 -6
-30 0 -10 5 -33 8 -50 6 -18 -1 -33 1 -33 6 0 9 -47 7 -56 -3 -3 -3 -18 -2
-34 3 -17 5 -32 4 -38 -2 -7 -7 -16 -7 -27 0 -15 8 -14 10 10 16 15 4 70 27
123 53 83 39 108 57 175 127 48 49 81 92 84 109 4 20 8 25 14 15 6 -9 9 -6 10
12 1 14 1 28 0 33 0 4 3 7 9 7 15 0 42 99 46 175 9 156 -45 307 -160 442 -10
12 -22 20 -26 18 -5 -3 -11 2 -14 11 -3 8 -11 12 -16 9 -6 -4 -9 -2 -8 3 2 6
-1 11 -7 13 -5 1 -16 9 -23 16 -7 7 -20 13 -28 13 -9 0 -12 5 -8 12 5 8 2 9
-9 5 -10 -4 -20 0 -25 9 -5 8 -15 17 -23 18 -8 2 -27 8 -44 15 -58 24 -141 38
-230 40 -50 1 -93 0 -95 -3z m290 -55 c75 -26 168 -80 222 -129 61 -55 43 -57
-24 -3 -119 97 -244 141 -398 141 -149 0 -285 -48 -394 -140 -44 -36 -67 -47
-52 -22 13 21 115 93 173 121 97 48 162 61 293 57 87 -2 131 -8 180 -25z
m-140 -32 c0 -5 -4 -9 -10 -9 -19 0 -37 -57 -50 -160 -7 -58 -14 -114 -16
-125 -1 -11 -3 -29 -3 -39 -1 -11 -3 -17 -6 -15 -5 5 -34 182 -39 239 -2 19
-4 41 -5 48 0 7 -13 25 -28 39 -16 15 -22 23 -15 19 6 -4 12 -3 12 3 0 13 22
17 96 13 35 -2 64 -8 64 -13z m-278 -37 c-7 -5 -13 -32 -15 -64 -1 -31 -5 -54
-9 -51 -5 2 -8 10 -8 18 0 8 -8 20 -18 27 -19 14 -39 54 -22 43 6 -3 10 -2 10
3 0 10 38 30 60 31 11 1 12 -1 2 -7z m116 -43 c2 -19 14 -119 27 -224 13 -104
27 -224 31 -265 4 -41 10 -83 13 -92 3 -10 24 127 46 302 l39 320 38 0 38 0 0
-455 0 -455 -31 0 -31 0 4 344 c2 189 0 342 -4 339 -5 -2 -8 -17 -8 -32 0 -27
-53 -474 -66 -553 -5 -33 -9 -38 -33 -38 l-27 0 -33 293 c-18 160 -37 306 -42
322 -5 17 -6 -121 -2 -317 5 -311 4 -348 -10 -348 -49 0 -47 -19 -47 446 l0
434 28 6 c15 3 32 7 37 9 21 7 30 -3 33 -36z m489 -44 c39 -18 74 -31 76 -29
9 9 61 -63 87 -121 129 -285 -8 -605 -315 -732 -210 -88 -489 -38 -654 116
-51 48 -29 50 25 2 56 -49 166 -105 249 -126 75 -19 211 -19 293 0 199 47 367
206 417 396 19 69 19 179 0 249 -16 62 -70 174 -93 193 -13 10 -15 7 -10 -30
4 -24 2 -43 -2 -43 -5 0 -29 9 -54 20 l-46 19 0 -333 0 -333 -25 -11 c-14 -7
-30 -12 -36 -12 -7 0 -9 121 -8 353 l2 352 -57 9 -56 9 0 63 0 62 68 -20 c37
-11 99 -35 139 -53z m-669 -46 c27 -90 -6 -277 -52 -295 -13 -5 -10 -11 13
-33 37 -35 61 -114 61 -203 0 -84 -16 -151 -41 -174 -18 -16 -22 -15 -80 10
-33 14 -64 24 -69 21 -12 -8 -66 62 -95 123 -32 67 -55 162 -55 227 0 65 23
160 55 227 29 61 82 131 95 123 4 -3 32 6 61 20 65 30 87 21 107 -46z m506
-50 c13 -6 26 -19 28 -28 3 -9 5 -158 6 -331 1 -277 3 -316 17 -326 14 -11 12
-15 -17 -37 -40 -30 -91 -42 -115 -28 -16 9 -16 10 -2 11 9 0 19 10 23 22 3
13 6 175 6 360 0 185 3 343 6 352 7 19 15 20 48 5z m285 -79 c5 -17 10 -31 10
-33 -1 -1 7 -21 16 -45 15 -35 17 -63 12 -145 -5 -90 -9 -110 -40 -172 -19
-39 -50 -86 -68 -105 l-34 -35 -7 80 c-3 44 -6 169 -6 277 l0 197 37 4 c20 2
43 4 53 5 10 1 20 -10 27 -28z m-745 -169 l4 -72 -24 26 c-13 14 -24 32 -24
40 0 17 32 86 37 81 2 -2 6 -36 7 -75z m2 -427 c0 -5 4 -17 9 -27 4 -11 3 -23
-4 -30 -8 -8 -11 -8 -11 1 0 7 -9 12 -19 12 -29 0 -36 18 -15 41 17 19 38 21
40 3z m203 -24 c13 0 33 7 43 17 17 16 19 14 22 -19 1 -7 10 -21 20 -30 10
-10 15 -18 10 -18 -5 0 -2 -4 6 -10 8 -5 11 -12 7 -17 -9 -8 -96 -7 -167 2
-46 6 -69 24 -46 37 7 4 19 21 26 38 11 28 14 29 33 15 12 -8 32 -15 46 -15z
m49 -165 c26 2 30 -12 5 -18 -40 -10 -80 -7 -80 7 0 8 8 11 20 8 15 -4 18 -2
12 9 -7 11 -6 12 6 3 8 -6 24 -10 37 -9z m332 -39 c23 5 31 1 45 -20 22 -33
12 -83 -19 -98 -18 -7 -22 -16 -18 -35 l5 -26 14 27 c8 15 20 25 26 23 20 -7
12 -77 -12 -100 -32 -32 -55 -13 -61 51 -3 28 -9 54 -14 59 -5 4 -6 -20 -3
-54 5 -61 4 -63 -18 -63 -15 0 -26 -8 -30 -20 -9 -30 -41 -24 -80 14 -39 39
-50 84 -42 158 7 59 30 98 56 98 56 0 80 -119 42 -205 -12 -27 -19 -50 -17
-53 9 -8 26 10 26 28 0 10 4 20 9 22 12 4 30 178 19 184 -4 3 -8 14 -8 25 0
20 0 20 26 0 18 -14 34 -18 54 -15z m-885 -73 c16 -100 24 -124 41 -130 12 -4
5 191 -7 195 -5 2 -9 10 -9 18 0 10 7 13 28 8 52 -11 52 -11 41 -46 -5 -18
-10 -61 -11 -96 -2 -69 11 -94 37 -72 20 17 19 28 -2 26 -25 -2 -24 53 0 68
31 20 47 -34 31 -110 -5 -28 -8 -29 -60 -29 -30 0 -54 3 -54 6 0 3 -13 4 -30
1 -30 -4 -30 -4 -30 47 0 44 -3 51 -19 51 -25 0 -32 -46 -12 -78 19 -31 10
-36 -28 -15 -29 17 -42 43 -22 43 13 0 19 21 31 110 10 69 25 100 51 100 4 0
15 -44 24 -97z m658 83 c15 -12 16 -18 8 -35 -15 -27 -14 -144 1 -159 10 -10
6 -18 -17 -36 l-30 -24 -6 26 c-5 26 -5 27 -13 5 -11 -33 -44 -30 -52 4 -7 27
6 122 21 156 5 12 3 17 -10 17 -25 0 -12 24 14 28 36 6 41 -8 25 -68 -16 -62
-18 -110 -5 -110 15 0 22 31 28 123 3 48 9 87 12 87 3 0 14 -7 24 -14z m434
-9 c2 -2 -1 -17 -7 -32 -17 -43 -5 -40 15 5 10 22 24 40 31 40 18 0 27 -71 19
-161 -5 -58 -4 -84 5 -94 18 -21 7 -28 -23 -14 -24 11 -25 13 -19 95 3 57 1
84 -6 84 -15 0 -26 -81 -17 -126 5 -30 4 -36 -8 -31 -8 3 -40 2 -71 -2 -62 -9
-73 -3 -51 25 18 24 20 165 3 182 -15 15 -2 28 32 35 26 5 89 1 97 -6z m-690
-39 l-6 -43 19 43 c27 58 50 56 51 -5 0 -42 2 -45 10 -24 16 41 30 53 45 40
17 -14 18 -93 2 -139 -9 -26 -9 -35 0 -38 24 -8 11 -22 -19 -22 -26 0 -30 3
-24 18 4 9 9 42 12 72 5 46 3 53 -8 42 -9 -8 -14 -38 -14 -91 0 -77 0 -78 -22
-68 -21 9 -22 14 -16 88 4 55 3 79 -5 79 -15 0 -26 -63 -18 -109 6 -37 5 -38
-24 -38 -22 0 -30 5 -30 19 0 10 3 18 8 18 10 0 2 153 -9 165 -19 19 -9 35 22
35 31 0 32 0 26 -42z m-131 -68 c29 -11 23 -27 -11 -30 -37 -4 -45 0 -45 20 0
22 16 25 56 10z"/>
<path d="M202 1270 c-62 -106 -75 -154 -76 -275 0 -121 13 -167 76 -275 l33
-55 3 168 c1 93 1 241 0 330 l-3 162 -33 -55z m-3 -310 l0 -155 -21 40 c-19
34 -22 57 -22 145 0 111 17 186 34 145 5 -11 9 -90 9 -175z"/>
<path d="M297 1264 c-10 -11 -9 -214 2 -214 26 0 52 39 61 92 14 75 3 122 -31
126 -14 2 -28 0 -32 -4z"/>
<path d="M290 846 l0 -114 26 -6 c33 -9 50 6 59 50 14 75 -27 184 -70 184 -12
0 -15 -19 -15 -114z"/>
<path d="M1014 315 c-8 -21 4 -35 32 -35 26 0 32 18 12 38 -16 16 -37 15 -44
-3z"/>
<path d="M870 271 c-13 -25 -13 -71 0 -91 8 -12 10 -9 10 12 0 58 27 78 48 36
l11 -23 0 23 c1 34 -17 62 -39 62 -11 0 -24 -9 -30 -19z"/>
<path d="M117 313 c-13 -12 -7 -43 8 -43 9 0 15 9 15 25 0 24 -10 32 -23 18z"/>
<path d="M1186 345 c-3 -9 -6 -52 -6 -96 0 -70 2 -79 18 -79 17 0 18 8 14 88
-4 86 -14 118 -26 87z"/>
</g>
</svg>
